<?xml version="1.0" encoding="iso-8859-1"?>
<!-- Generator: Adobe Illustrator 24.3.0, SVG Export Plug-In . SVG Version: 6.00 Build 0)  -->
<svg version="1.1" id="Layer_1" xmlns="http://www.w3.org/2000/svg" xmlns:xlink="http://www.w3.org/1999/xlink" x="0px" y="0px"
	 width="128.207px" height="82.204px" viewBox="0 0 128.207 82.204" enable-background="new 0 0 128.207 82.204"
	 xml:space="preserve">
<g>
	<path fill="#004B96" d="M80.065,51.023H66.891H42.164h-0.518h-9.151H19.32C0,51.023,0,64.898,0,66.613v12.474
		c0,1.715,0,3.117,0,3.117h16.92h24.726h0.518h9.152h13.175c19.32,0,19.32-13.875,19.32-15.591V51.034
		C83.812,51.034,82.124,51.023,80.065,51.023z"/>
</g>
<g>
	<path fill="#6F6F6F" d="M122.078,0h-21.555H88.838H73.012H59.216h-7.76C19.843,0,19.843,22.705,19.843,25.512v25.506
		c0,0,2.76,0.006,6.129,0.006h21.558h11.687h15.823h13.799h7.758c31.611,0,31.611-22.705,31.611-25.512V0
		C128.207,0,125.449,0,122.078,0z"/>
</g>
<g>
	<path fill="#FFFFFF" d="M55.345,15.058c-1.474-0.682-3.628-1.222-5.856-1.222c-6.143,0-9.017,2.802-9.017,11.353
		c0,9.125,2.91,11.998,9.125,11.998c2.263,0,4.203-0.538,5.82-1.4l0.394,2.048c-1.616,0.862-4.095,1.616-6.502,1.616
		c-7.832,0-11.28-4.347-11.28-14.262c0-9.448,3.521-13.615,11.352-13.615c2.264,0,4.886,0.61,6.287,1.293L55.345,15.058z"/>
	<path fill="#FFFFFF" d="M64.252,12.004l8.514,20.944l1.041,2.694h0.107l1.006-2.694l8.516-20.944h2.766v26.944h-2.119V18.794
		l0.072-2.91l-0.109-0.035l-1.041,2.73l-8.299,20.369h-1.797L64.61,18.687l-1.041-2.731l-0.072,0.035l0.036,2.91v20.047h-2.084
		V12.004H64.252z"/>
	<path fill="#FFFFFF" d="M110.807,36.721l-0.107,2.228H94.174V12.004h15.877l0.109,2.227H96.508v9.592h11.82v2.012h-11.82v10.886
		H110.807z"/>
</g>
<g>
	<path fill="#FFFFFF" d="M18.491,75.006c-4.32,0-5.981-2.221-5.981-7.781c0-5.562,1.64-7.742,5.981-7.742
		c4.361,0,5.981,2.18,5.981,7.742C24.473,72.805,22.852,75.006,18.491,75.006z M18.491,60.742c-3.301,0-4.621,1.421-4.621,6.482
		c0,5.041,1.32,6.501,4.641,6.501c3.301,0,4.602-1.46,4.602-6.501C23.112,62.163,21.811,60.742,18.491,60.742z"/>
	<path fill="#FFFFFF" d="M35.292,74.726v-7.962c0-2.02-1.121-2.881-3.121-2.881c-1.16,0-2.561,0.56-3.221,1.601v9.242h-1.2V62.943
		l0.86-0.08l0.22,1.42h0.059c0.801-0.981,2.161-1.561,3.582-1.561c2.5,0,4.02,1.301,4.02,4.022v7.981H35.292z"/>
	<path fill="#FFFFFF" d="M40.53,74.726V58.803l1.2-0.08v16.003H40.53z"/>
	<path fill="#FFFFFF" d="M47.171,60.502c-0.601,0-0.94-0.199-0.94-0.84c0-0.54,0.34-0.84,0.94-0.84c0.6,0,0.939,0.3,0.939,0.84
		C48.11,60.242,47.771,60.502,47.171,60.502z M46.55,74.726V62.982l1.221-0.1v11.843H46.55z"/>
	<path fill="#FFFFFF" d="M59.691,74.726v-7.962c0-2.02-1.12-2.881-3.12-2.881c-1.16,0-2.561,0.56-3.221,1.601v9.242h-1.201V62.943
		l0.861-0.08l0.219,1.42h0.06c0.801-0.981,2.16-1.561,3.581-1.561c2.501,0,4.021,1.301,4.021,4.022v7.981H59.691z"/>
	<path fill="#FFFFFF" d="M63.71,68.424c0-3.7,1.58-5.701,4.701-5.701c2.66,0,4.521,1.621,4.521,5.441c0,0.18-0.021,0.44-0.04,0.6
		H64.95c0.06,3.781,1.32,5.062,4.141,5.062c1.24,0,2.26-0.3,3.261-0.84l0.159,1.06c-1.02,0.58-2.16,0.921-3.54,0.921
		C65.21,74.966,63.71,72.985,63.71,68.424z M71.812,67.904c-0.04-2.98-1.44-4.102-3.4-4.102c-2.321,0-3.361,1.381-3.481,4.102
		H71.812z"/>
</g>
<g>
</g>
<g>
</g>
<g>
</g>
<g>
</g>
<g>
</g>
<g>
</g>
</svg>
