<?xml version="1.0" encoding="utf-8"?>
<!-- Generator: Adobe Illustrator 24.3.0, SVG Export Plug-In . SVG Version: 6.00 Build 0)  -->
<svg version="1.1" id="Layer_4" xmlns="http://www.w3.org/2000/svg" xmlns:xlink="http://www.w3.org/1999/xlink" x="0px" y="0px"
	 viewBox="0 0 585 242.5" style="enable-background:new 0 0 585 242.5;" xml:space="preserve">
<style type="text/css">
	.st0{fill:#771A51;}
	.st1{fill:#DC750F;}
	.st2{fill:#FFFFFF;}
	.st3{fill:none;}
</style>
<g>
	<path class="st0" d="M569.5,0h-54.5H353.2h-0.8h-53.8h-0.8h-97.3H146c-80,0-80,66.4-80,74.6v74.6h15.5h54.5h161.8h0.8h53.8h0.8
		h97.3H505c80,0,80-66.4,80-74.6V0H569.5z"/>
	<path class="st1" d="M364.1,149.1h-39.4h-117h-0.6h-38.9h-0.6H97.3H57.9C0,149.1,0,190.7,0,195.8v46.7c0,0,5.1,0,11.2,0h39.4h117.1
		h0.6h38.9h0.6h70.4h39.4c57.8,0,57.8-41.5,57.8-46.7v-46.7H364.1z"/>
	<path class="st2" d="M59.4,209.6c-2.4,1.1-5.8,1.9-9.5,1.9c-10,0-14.5-5-14.5-17.1c0-12.4,4.6-17.3,14.6-17.3
		c3.1,0,6.4,0.7,8.6,1.6l-0.4,2.7c-2.3-1-5-1.6-8.1-1.6c-7.9,0-11.7,3.4-11.7,14.5c0,10.6,3.3,14.3,11.4,14.3c2.7,0,5-0.5,6.9-1.2
		v-14h2.6V209.6z"/>
	<path class="st3" d="M59.4,209.6c-2.4,1.1-5.8,1.9-9.5,1.9c-10,0-14.5-5-14.5-17.1c0-12.4,4.6-17.3,14.6-17.3
		c3.1,0,6.4,0.7,8.6,1.6l-0.4,2.7c-2.3-1-5-1.6-8.1-1.6c-7.9,0-11.7,3.4-11.7,14.5c0,10.6,3.3,14.3,11.4,14.3c2.7,0,5-0.5,6.9-1.2
		v-14h2.6V209.6z"/>
	<path class="st2" d="M76.1,209.2c5.8,0,8.1-3.1,8.1-11.2c0-8.1-2.3-11.2-8.1-11.2c-5.9,0-8.2,3.1-8.2,11.2
		C67.9,206.1,70.2,209.2,76.1,209.2 M76.1,211.5c-7.6,0-11-3.8-11-13.6c0-9.7,3.5-13.6,11-13.6c7.7,0,10.9,3.9,10.9,13.6
		C87,207.7,83.8,211.5,76.1,211.5"/>
	<path class="st3" d="M76.1,209.2c5.8,0,8.1-3.1,8.1-11.2c0-8.1-2.3-11.2-8.1-11.2c-5.9,0-8.2,3.1-8.2,11.2
		C67.9,206.1,70.2,209.2,76.1,209.2 M76.1,211.5c-7.6,0-11-3.8-11-13.6c0-9.7,3.5-13.6,11-13.6c7.7,0,10.9,3.9,10.9,13.6
		C87,207.7,83.8,211.5,76.1,211.5"/>
	<path class="st2" d="M103.1,209.2c5.9,0,8.1-3.1,8.1-11.2c0-8.1-2.3-11.2-8.1-11.2c-5.9,0-8.2,3.1-8.2,11.2
		C94.9,206.1,97.2,209.2,103.1,209.2 M103.1,211.5c-7.6,0-11-3.8-11-13.6c0-9.7,3.5-13.6,11-13.6c7.7,0,10.9,3.9,10.9,13.6
		C114,207.7,110.8,211.5,103.1,211.5"/>
	<path class="st3" d="M103.1,209.2c5.9,0,8.1-3.1,8.1-11.2c0-8.1-2.3-11.2-8.1-11.2c-5.9,0-8.2,3.1-8.2,11.2
		C94.9,206.1,97.2,209.2,103.1,209.2 M103.1,211.5c-7.6,0-11-3.8-11-13.6c0-9.7,3.5-13.6,11-13.6c7.7,0,10.9,3.9,10.9,13.6
		C114,207.7,110.8,211.5,103.1,211.5"/>
	<path class="st2" d="M137.2,190.5c-1.3-2.2-4-3.6-7.3-3.6c-5.9,0-8.1,3.2-8.1,11c0,8.1,2,11.2,8,11.2c4.4,0,6.5-2.2,7.4-3.8V190.5z
		 M137.8,210.9l-0.4-3.1l-0.1-0.1c-1.6,2.4-4.4,3.6-8.1,3.6c-7.3,0-10.1-4.2-10.1-13.6c0-9,3-13.5,10.1-13.5c3.2,0,6.1,1.1,8,3.4
		l0.1-0.1l-0.1-3.6v-8.5l2.7-0.2v35.5H137.8z"/>
	<path class="st3" d="M137.2,190.5c-1.3-2.2-4-3.6-7.3-3.6c-5.9,0-8.1,3.2-8.1,11c0,8.1,2,11.2,8,11.2c4.4,0,6.5-2.2,7.4-3.8V190.5z
		 M137.8,210.9l-0.4-3.1l-0.1-0.1c-1.6,2.4-4.4,3.6-8.1,3.6c-7.3,0-10.1-4.2-10.1-13.6c0-9,3-13.5,10.1-13.5c3.2,0,6.1,1.1,8,3.4
		l0.1-0.1l-0.1-3.6v-8.5l2.7-0.2v35.5H137.8z"/>
	<polygon class="st2" points="172.6,180.5 172.6,210.9 169.6,210.9 169.6,180.5 159.2,180.5 159.3,177.7 183,177.7 183,180.5 	"/>
	<polygon class="st3" points="172.6,180.5 172.6,210.9 169.6,210.9 169.6,180.5 159.2,180.5 159.3,177.7 183,177.7 183,180.5 	"/>
	<g>
		<path class="st2" d="M197.4,209.2c5.8,0,8.1-3.1,8.1-11.2c0-8.1-2.3-11.2-8.1-11.2c-5.9,0-8.2,3.1-8.2,11.2
			C189.2,206.1,191.5,209.2,197.4,209.2 M197.4,211.5c-7.6,0-11-3.8-11-13.6c0-9.7,3.5-13.6,11-13.6c7.7,0,10.9,3.9,10.9,13.6
			C208.3,207.7,205.1,211.5,197.4,211.5"/>
		<path class="st3" d="M197.4,209.2c5.8,0,8.1-3.1,8.1-11.2c0-8.1-2.3-11.2-8.1-11.2c-5.9,0-8.2,3.1-8.2,11.2
			C189.2,206.1,191.5,209.2,197.4,209.2 M197.4,211.5c-7.6,0-11-3.8-11-13.6c0-9.7,3.5-13.6,11-13.6c7.7,0,10.9,3.9,10.9,13.6
			C208.3,207.7,205.1,211.5,197.4,211.5"/>
	</g>
	<polygon class="st2" points="250.5,210.9 238.4,194.9 232.9,194.9 232.9,210.9 229.9,210.9 229.9,177.7 232.9,177.7 232.9,192.2 
		238.4,192.2 249.9,177.7 253.5,177.7 241.1,193.4 254.3,210.9 	"/>
	<polygon class="st3" points="250.5,210.9 238.4,194.9 232.9,194.9 232.9,210.9 229.9,210.9 229.9,177.7 232.9,177.7 232.9,192.2 
		238.4,192.2 249.9,177.7 253.5,177.7 241.1,193.4 254.3,210.9 	"/>
	<path class="st2" d="M276.7,210.9v-17.6c0-4.5-2.5-6.4-6.9-6.4c-2.6,0-5.7,1.3-7.1,3.5v20.5H260v-26.1l1.9-0.2l0.5,3.1h0.1
		c1.8-2.2,4.8-3.5,7.9-3.5c5.5,0,8.9,2.9,8.9,8.9v17.7H276.7z"/>
	<path class="st3" d="M276.7,210.9v-17.6c0-4.5-2.5-6.4-6.9-6.4c-2.6,0-5.7,1.3-7.1,3.5v20.5H260v-26.1l1.9-0.2l0.5,3.1h0.1
		c1.8-2.2,4.8-3.5,7.9-3.5c5.5,0,8.9,2.9,8.9,8.9v17.7H276.7z"/>
	<path class="st2" d="M296.6,209.2c5.8,0,8.1-3.1,8.1-11.2c0-8.1-2.3-11.2-8.1-11.2c-5.9,0-8.2,3.1-8.2,11.2
		C288.4,206.1,290.7,209.2,296.6,209.2 M296.6,211.5c-7.6,0-11-3.8-11-13.6c0-9.7,3.4-13.6,11-13.6c7.7,0,10.9,3.9,10.9,13.6
		C307.5,207.7,304.3,211.5,296.6,211.5"/>
	<path class="st3" d="M296.6,209.2c5.8,0,8.1-3.1,8.1-11.2c0-8.1-2.3-11.2-8.1-11.2c-5.9,0-8.2,3.1-8.2,11.2
		C288.4,206.1,290.7,209.2,296.6,209.2 M296.6,211.5c-7.6,0-11-3.8-11-13.6c0-9.7,3.4-13.6,11-13.6c7.7,0,10.9,3.9,10.9,13.6
		C307.5,207.7,304.3,211.5,296.6,211.5"/>
	<polygon class="st2" points="330.8,184.8 336.2,205.4 337.1,208.9 337.2,208.9 337.9,205.4 342.8,184.8 345.5,184.8 338.9,210.9 
		335.5,210.9 330.2,191.1 329.4,187.6 329.3,187.6 328.4,191.1 323,210.9 319.6,210.9 312.8,184.8 315.6,184.8 320.5,205.3 
		321.3,208.8 321.5,208.8 322.3,205.4 327.8,184.8 	"/>
	<polygon class="st3" points="330.8,184.8 336.2,205.4 337.1,208.9 337.2,208.9 337.9,205.4 342.8,184.8 345.5,184.8 338.9,210.9 
		335.5,210.9 330.2,191.1 329.4,187.6 329.3,187.6 328.4,191.1 323,210.9 319.6,210.9 312.8,184.8 315.6,184.8 320.5,205.3 
		321.3,208.8 321.5,208.8 322.3,205.4 327.8,184.8 	"/>
	<rect x="237.8" y="74.5" class="st2" width="26.6" height="5.1"/>
	<polygon class="st2" points="329.4,33.9 345.6,97.5 347.6,105.8 347.9,105.8 349.6,97.5 364.3,33.9 371.2,33.9 352,112.8 
		343.2,112.8 327.3,49 325.5,40.6 325.2,40.6 323.3,49 307.3,112.8 298.7,112.8 279.4,33.9 286.5,33.9 301.2,97.6 303,105.9 
		303.3,105.9 305.2,97.6 321.4,33.9 	"/>
	<rect x="390.8" y="33.9" class="st2" width="6.9" height="78.8"/>
	<g>
		<path class="st2" d="M439.4,114.2c-9,0-16.4-2.4-22.4-6.1l1.3-6.5c6.1,4,12.8,6.1,21.1,6.1c12.5,0,18.9-6.1,18.9-16.3
			c0-21.1-40.5-11.9-40.5-37.9c0-11.9,7.6-20.9,24.5-20.9c7.7,0,14.6,1.6,20.2,4.2l-1.3,6.2c-6-2.5-11.8-4-18.6-4
			c-13,0-18.2,6.6-18.2,14.1c0,20.1,40.6,10.6,40.6,37.8C465,105.4,456.2,114.2,439.4,114.2"/>
	</g>
	<polygon class="st2" points="530.4,106.2 530.1,112.8 481.7,112.8 481.7,33.9 528.2,33.9 528.5,40.4 488.5,40.4 488.5,68.5 
		523.1,68.5 523.1,74.4 488.5,74.4 488.5,106.2 	"/>
	<g>
		<path class="st2" d="M180.1,36.6c0-1.1-0.4-2.1-1.3-3c-0.9-0.9-2.1-1.3-3.6-1.3c-3.7,0-7.7,1.7-12,5.2c-4.3,3.4-8.5,7.5-12.4,12.2
			c-3.9,4.7-7.4,9.5-10.3,14.5c-2.9,5-4.8,9-5.8,12.1c0,0.4,0.1,0.7,0.3,0.9l0.3,0.3c5.2-0.6,10.4-2.3,15.8-5.2
			c5.3-2.9,10.1-6.2,14.4-10.1c4.3-3.8,7.8-8,10.6-12.6C178.8,44.9,180.1,40.6,180.1,36.6 M216.6,65c0,1-0.4,2.4-1.3,4.5
			c-0.9,2-2,4-3.3,5.9c-3.1,4.6-7.3,9.7-12.6,15.4c-5.4,5.6-11.3,11-17.9,15.9c-6.6,5-13.6,9.2-21,12.6c-7.4,3.4-14.7,5.2-22,5.2
			c-2.3,0-5-0.2-8-0.7c-3.1-0.5-5.9-1.6-8.6-3.3c-2.7-1.7-5-4.3-6.9-7.8c-1.9-3.4-2.9-8.2-2.9-14.4c0-9.2,2.1-18.2,6.2-27.1
			c4.1-8.9,9.4-16.9,15.8-24c6.4-7.1,13.4-12.8,21.1-17.1c7.7-4.3,15-6.5,22.1-6.5c4,0,7.4,1,10.2,2.9c2.8,1.9,4.2,5.5,4.2,10.6
			c0,4.6-1.5,9.6-4.4,15.1c-3,5.5-7.1,10.6-12.5,15.4c-5.4,4.8-11.6,8.9-18.8,12.2c-7.2,3.4-15,5.2-23.4,5.6c-0.2-0.2-0.4-0.2-0.6,0
			l-0.6,1.1c-1.5,4.4-2.3,8.5-2.3,12.4c0,3.1,0.4,5.6,1.3,7.6c0.9,2,2,3.5,3.5,4.6c1.4,1.1,3,1.8,4.7,2.2c1.7,0.4,3.3,0.6,4.9,0.6
			c3.4,0,7.4-0.6,11.8-1.9c4.4-1.3,9.5-3.7,15.2-7.5c5.8-3.7,12.1-9,19.1-15.7c7-6.7,14.7-15.6,23.1-26.7c0.2-0.4,0.4-0.7,0.6-0.9
			c0.4-0.4,0.8-0.6,1.1-0.6c0.4,0,0.9,0.3,1.4,1C216.3,62.4,216.6,63.5,216.6,65"/>
	</g>
</g>
</svg>
