<?xml version="1.0" encoding="utf-8"?>
<!-- Generator: Adobe Illustrator 24.1.1, SVG Export Plug-In . SVG Version: 6.00 Build 0)  -->
<svg version="1.1" id="Layer_2" xmlns="http://www.w3.org/2000/svg" xmlns:xlink="http://www.w3.org/1999/xlink" x="0px" y="0px"
	 viewBox="0 0 730.73 439.39" style="enable-background:new 0 0 730.73 439.39;" xml:space="preserve">
<style type="text/css">
	.st0{fill:#006745;}
	.st1{fill:#6F6F6F;}
	.st2{fill:#FFFFFF;}
</style>
<g>
	<path class="st0" d="M427.96,272.72h-70.42H225.37h-2.77h-48.91h-70.42C0,272.72,0,346.89,0,356.05v66.67c0,9.17,0,16.66,0,16.66
		h90.44H222.6h2.77h48.92h70.42c103.27,0,103.27-74.16,103.27-83.33v-83.27C447.98,272.78,438.96,272.72,427.96,272.72z"/>
</g>
<g>
	<path class="st1" d="M697.97,0H582.76H520.3h-84.59h-73.74h-41.48C151.51,0,151.51,121.36,151.51,136.36v136.33
		c0,0,14.75,0.03,32.76,0.03H299.5h62.47h84.58h73.76h41.47c168.97,0,168.97-121.36,168.97-136.36V0C730.73,0,715.99,0,697.97,0z"/>
</g>
<g>
	<path class="st2" d="M98.84,400.91c-23.09,0-31.97-11.87-31.97-41.59c0-29.73,8.76-41.38,31.97-41.38
		c23.31,0,31.97,11.65,31.97,41.38C130.81,389.15,122.15,400.91,98.84,400.91z M98.84,324.67c-17.64,0-24.7,7.59-24.7,34.65
		c0,26.94,7.06,34.75,24.8,34.75c17.64,0,24.6-7.8,24.6-34.75C123.54,332.27,116.58,324.67,98.84,324.67z"/>
	<path class="st2" d="M188.64,399.41v-42.56c0-10.79-5.99-15.4-16.68-15.4c-6.2,0-13.69,3-17.21,8.56v49.4h-6.42v-62.98l4.6-0.43
		l1.17,7.59h0.32c4.28-5.24,11.55-8.34,19.15-8.34c13.36,0,21.48,6.95,21.48,21.49v42.66H188.64z"/>
	<path class="st2" d="M216.64,399.41v-85.11l6.42-0.43v85.54H216.64z"/>
	<path class="st2" d="M252.13,323.39c-3.21,0-5.03-1.07-5.03-4.49c0-2.89,1.82-4.49,5.03-4.49c3.2,0,5.02,1.6,5.02,4.49
		C257.15,322,255.34,323.39,252.13,323.39z M248.81,399.41v-62.77l6.52-0.53v63.3H248.81z"/>
	<path class="st2" d="M319.06,399.41v-42.56c0-10.79-5.99-15.4-16.68-15.4c-6.2,0-13.69,3-17.21,8.56v49.4h-6.42v-62.98l4.6-0.43
		l1.17,7.59h0.32c4.28-5.24,11.55-8.34,19.14-8.34c13.37,0,21.49,6.95,21.49,21.49v42.66H319.06z"/>
	<path class="st2" d="M340.54,365.73c0-19.78,8.45-30.47,25.13-30.47c14.22,0,24.16,8.66,24.16,29.08c0,0.96-0.11,2.35-0.21,3.2
		h-42.45c0.32,20.21,7.06,27.05,22.13,27.05c6.63,0,12.08-1.6,17.43-4.49l0.85,5.66c-5.45,3.1-11.55,4.92-18.92,4.92
		C348.55,400.7,340.54,390.11,340.54,365.73z M383.84,362.95c-0.21-15.93-7.7-21.92-18.18-21.92c-12.41,0-17.97,7.38-18.61,21.92
		H383.84z"/>
</g>
<g>
	<path class="st2" d="M379.33,149.86h-33.3v58.32h-12.71V63.82h46c32.72,0,46.97,12.71,46.97,42.93
		C426.3,135.81,412.44,149.86,379.33,149.86z M379.33,75.18h-33.3v63.71h33.3c22.52,0,34.07-7.7,34.07-32.14
		C413.4,83.65,402.43,75.18,379.33,75.18z"/>
	<path class="st2" d="M512.13,210.88c-41.58,0-57.55-21.37-57.55-74.88c0-53.51,15.78-74.49,57.55-74.49
		c41.96,0,57.55,20.98,57.55,74.49C569.68,189.7,554.09,210.88,512.13,210.88z M512.13,73.64c-31.76,0-44.46,13.67-44.46,62.36
		c0,48.51,12.71,62.56,44.66,62.56c31.76,0,44.27-14.05,44.27-62.56C556.59,87.3,544.08,73.64,512.13,73.64z"/>
</g>
</svg>
