<?xml version="1.0" encoding="iso-8859-1"?>
<!-- Generator: Adobe Illustrator 23.0.3, SVG Export Plug-In . SVG Version: 6.00 Build 0)  -->
<svg version="1.1" id="Layer_2" xmlns="http://www.w3.org/2000/svg" xmlns:xlink="http://www.w3.org/1999/xlink" x="0px" y="0px"
	 width="136.712px" height="82.205px" viewBox="0 0 136.712 82.205" enable-background="new 0 0 136.712 82.205"
	 xml:space="preserve">
<g>
	<path fill="#006848" d="M19.319,51.023C0,51.023,0,64.898,0,66.613v15.592h77.952c19.32,0,19.32-13.875,19.32-15.592V51.037
		L19.319,51.023z"/>
</g>
<g>
	<path fill="#6D6E71" d="M59.959,0C28.346,0,28.346,22.705,28.346,25.512v25.505l76.755,0.006c31.611,0,31.611-22.704,31.611-25.511
		V0H59.959z"/>
</g>
<g>
	<path fill="#FFFFFF" d="M71.005,28.099h-6.215v10.885h-2.371V12.04h8.586c6.107,0,8.768,2.372,8.768,8.012
		C79.772,25.476,77.185,28.099,71.005,28.099z M71.005,14.16h-6.215v11.891h6.215c4.203,0,6.359-1.437,6.359-5.999
		C77.364,15.74,75.315,14.16,71.005,14.16z"/>
	<path fill="#FFFFFF" d="M104.054,36.757l-0.107,2.227H87.421V12.04h15.877l0.109,2.227H89.755v9.593h11.82v2.011h-11.82v10.886
		H104.054z"/>
</g>
<g>
	<path fill="#FFFFFF" d="M18.626,68.849h-6.384l-1.256,3.501H9.731l5.041-13.264h1.379l5.04,13.264h-1.309L18.626,68.849z
		 M14.982,61.314l-2.352,6.49h5.624l-2.317-6.49l-0.441-1.361h-0.053L14.982,61.314z"/>
	<path fill="#FFFFFF" d="M29.451,63.313c-0.654-0.318-1.467-0.548-2.299-0.548c-2.44,0-3.396,1.256-3.396,4.245
		c0,3.377,1.149,4.58,3.36,4.58c0.885,0,1.75-0.248,2.405-0.725l0.106,0.937c-0.619,0.46-1.627,0.778-2.707,0.778
		c-2.864,0-4.279-1.627-4.279-5.57c0-3.555,1.309-5.271,4.298-5.271c0.973,0,1.909,0.247,2.6,0.583L29.451,63.313z"/>
	<path fill="#FFFFFF" d="M38.136,70.883l-0.053-0.017c-0.565,0.99-1.804,1.645-3.254,1.645c-1.893,0-3.201-0.938-3.201-3.273
		c0-1.98,1.22-3.112,3.767-3.112c0.938,0,1.893,0.194,2.6,0.46v-1.291c0-1.981-0.831-2.618-2.67-2.618
		c-1.079,0-2.052,0.195-2.953,0.654l-0.124-0.937c0.99-0.46,2.052-0.691,3.254-0.691c2.546,0,3.572,1.044,3.572,3.75v6.896H38.26
		L38.136,70.883z M37.994,67.434c-0.266-0.194-1.184-0.495-2.439-0.495c-2.017,0-2.9,0.831-2.9,2.281c0,1.769,1.06,2.37,2.457,2.37
		c1.521,0,2.883-1.062,2.883-2.069V67.434z"/>
	<path fill="#FFFFFF" d="M49.049,72.35l-0.176-1.22l-0.054-0.018c-0.654,0.955-1.769,1.45-3.236,1.45c-2.9,0-4.032-1.697-4.032-5.43
		c0-3.59,1.203-5.393,4.051-5.393c1.272,0,2.439,0.46,3.183,1.362l0.035-0.019l-0.035-1.415v-3.377l1.079-0.089V72.35H49.049z
		 M48.784,64.197c-0.513-0.867-1.592-1.433-2.918-1.433c-2.335,0-3.219,1.273-3.219,4.403c0,3.219,0.813,4.475,3.201,4.475
		c1.751,0,2.6-0.866,2.936-1.521V64.197z"/>
	<path fill="#FFFFFF" d="M52.588,66.779c0-3.271,1.397-5.04,4.156-5.04c2.352,0,3.996,1.433,3.996,4.81
		c0,0.16-0.018,0.39-0.035,0.531h-7.021c0.054,3.342,1.167,4.475,3.661,4.475c1.096,0,1.998-0.266,2.883-0.743l0.141,0.938
		c-0.901,0.513-1.91,0.813-3.13,0.813C53.914,72.563,52.588,70.812,52.588,66.779z M59.75,66.319
		c-0.035-2.635-1.273-3.625-3.006-3.625c-2.052,0-2.971,1.22-3.077,3.625H59.75z"/>
	<path fill="#FFFFFF" d="M75.333,72.35v-7.092c0-1.697-0.973-2.475-2.529-2.475c-1.238,0-2.369,0.76-2.369,2.245v7.321h-1.061
		v-7.321c0-1.627-1.08-2.245-2.371-2.245c-0.99,0-2.051,0.547-2.547,1.397v8.17h-1.062V61.934l0.761-0.07l0.212,1.273h0.053
		c0.585-0.832,1.628-1.362,2.761-1.362c1.502,0,2.457,0.583,2.883,1.733h0.053c0.477-1.15,1.574-1.751,2.936-1.751
		c1.98,0,3.342,1.097,3.342,3.483v7.109H75.333z"/>
	<path fill="#FFFFFF" d="M83.187,72.686l0.072-0.229l-4.635-10.54h1.291l3.361,8.152l0.529,1.326h0.053l0.426-1.361l2.793-8.117
		h1.186l-3.979,10.823c-0.707,1.786-1.609,2.352-2.865,2.352c-0.549,0-1.096-0.125-1.521-0.336l0.143-0.867
		c0.406,0.23,0.83,0.318,1.203,0.318C82.091,74.207,82.675,73.854,83.187,72.686z"/>
</g>
<g>
</g>
<g>
</g>
<g>
</g>
<g>
</g>
<g>
</g>
<g>
</g>
</svg>
